<?xml version="1.0" encoding="utf-8"?>
<!-- Generator: Adobe Illustrator 21.1.0, SVG Export Plug-In . SVG Version: 6.00 Build 0)  -->
<svg version="1.1" xmlns="http://www.w3.org/2000/svg" xmlns:xlink="http://www.w3.org/1999/xlink" x="0px" y="0px"
	 viewBox="0 0 500 620" style="enable-background:new 0 0 500 620;" xml:space="preserve">
<style type="text/css">
	.st0{fill:#FFFFFF;}
	.st1{fill:#FFFFFF;stroke:#000000;stroke-miterlimit:10;}
	.st2{display:none;}
	.st3{display:inline;fill:#FFFFFF;}
	.st4{fill:#ACACAC;}
</style>
<g id="Layer_1">
	<rect width="500" height="100"/>
	<rect y="530" width="500" height="90"/>
	<rect x="20" y="550" class="st0" width="460" height="50"/>
</g>
<g id="Layer_3">
	<g>
		<rect y="530" width="500" height="10"/>
		<rect y="510" width="500" height="10"/>
		<rect y="490" width="500" height="10"/>
		<rect y="470" width="500" height="10"/>
		<rect y="450" width="500" height="10"/>
		<rect y="430" width="500" height="10"/>
		<rect y="410" width="500" height="10"/>
		<rect y="390" width="500" height="10"/>
		<rect y="370" width="500" height="10"/>
		<rect y="350" width="500" height="10"/>
		<rect y="330" width="500" height="10"/>
		<rect y="310" width="500" height="10"/>
		<rect y="290" width="500" height="10"/>
		<rect y="270" width="500" height="10"/>
		<rect y="250" width="500" height="10"/>
		<rect y="230" width="500" height="10"/>
		<rect y="210" width="500" height="10"/>
		<rect y="190" width="500" height="10"/>
		<rect y="170" width="500" height="10"/>
		<rect y="150" width="500" height="10"/>
		<rect y="130" width="500" height="10"/>
		<rect y="110" width="500" height="10"/>
	</g>
	<path class="st1" d="M22,343.2v-52.9l131.9-134.6v52.9L48.1,316.7l105.8,107.3V477L22,343.2z"/>
	<path class="st1" d="M186.5,476.9L287.8,151h31.1L217.5,476.9H186.5z"/>
	<path class="st1" d="M349.4,477v-52.9l105.8-107.3L349.4,208.6v-52.9l131.9,134.6v52.9L349.4,477z"/>
	<g class="st2">
		<path class="st3" d="M25,344.6v-54.4l138-138.3v54.4L52.3,317.3L163,427.7v54.4L25,344.6z"/>
		<path class="st3" d="M193.9,482l106-335h32.5l-106,335H193.9z"/>
		<path class="st3" d="M357,482.1v-54.4l110.7-110.4L357,206.2v-54.4l138,138.3v54.4L357,482.1z"/>
	</g>
	<polygon points="153.9,425.1 148.9,420 96.7,420 106.6,430 153.9,430 	"/>
	<polygon points="143.8,220 91.9,220 82,230 134,230 	"/>
	<polygon points="104.6,260 52.6,260 42.8,270 94.8,270 	"/>
	<polygon points="153.9,209.6 153.9,200 111.5,200 101.7,210 153.6,210 	"/>
	<polygon points="109.5,380 57.3,380 67.2,390 119.4,390 	"/>
	<polygon points="129.2,400 77,400 86.9,410 139.1,410 	"/>
	<polygon points="153.9,460 136.2,460 146,470 153.9,470 	"/>
	<polygon points="153.9,160 150.7,160 140.9,170 153.9,170 	"/>
	<polygon points="153.9,440 116.5,440 126.3,450 153.9,450 	"/>
	<polygon points="153.9,180 131.1,180 121.3,190 153.9,190 	"/>
	<polygon points="124.2,240 72.2,240 62.4,250 114.4,250 	"/>
	<polygon points="65.5,300 22,300 22,310 55.7,310 	"/>
	<polygon points="85,280 33,280 23.2,290 75.2,290 	"/>
	<polygon points="50.4,320 22,320 22,330 60.2,330 	"/>
	<polygon points="70.1,340 22,340 22,344.2 27.7,350 79.9,350 	"/>
	<polygon points="89.8,360 37.6,360 47.5,370 99.7,370 	"/>
	<polygon points="244.9,390 248,380 216.9,380 213.8,390 	"/>
	<polygon points="300.9,210 304,200 272.9,200 269.8,210 	"/>
	<polygon points="226.2,450 229.3,440 198.2,440 195.1,450 	"/>
	<polygon points="294.6,230 297.8,220 266.7,220 263.6,230 	"/>
	<polygon points="269.8,310 272.9,300 241.8,300 238.7,310 	"/>
	<polygon points="307.1,190 310.2,180 279.1,180 276,190 	"/>
	<polygon points="257.3,350 260.4,340 229.3,340 226.2,350 	"/>
	<polygon points="313.3,170 316.4,160 285.3,160 282.2,170 	"/>
	<polygon points="232.4,430 235.5,420 204.5,420 201.3,430 	"/>
	<polygon points="220,470 223.1,460 192,460 188.9,470 	"/>
	<polygon points="263.5,330 266.6,320 235.6,320 232.5,330 	"/>
	<polygon points="238.7,410 241.8,400 210.7,400 207.6,410 	"/>
	<polygon points="288.4,250 291.5,240 260.4,240 257.3,250 	"/>
	<polygon points="282.2,270 285.3,260 254.2,260 251.1,270 	"/>
	<polygon points="276,290 279.1,280 248,280 244.9,290 	"/>
	<polygon points="251.1,370 254.2,360 223.1,360 220,370 	"/>
	<polygon points="403.7,370 455.9,370 465.7,360 413.5,360 	"/>
	<polygon points="443.1,330 481.3,330 481.3,320 453,320 	"/>
	<polygon points="349.1,169.7 362.2,170.3 352.9,159.8 349.7,159.7 	"/>
	<polygon points="349.4,190 382.1,190 372.3,180 349.4,180 	"/>
	<polygon points="408.5,270 460.5,270 450.7,260 398.7,260 	"/>
	<polygon points="423.4,350 475.6,350 481.3,344.2 481.3,340 433.2,340 	"/>
	<polygon points="447.7,310 481.3,310 481.3,300 437.9,300 	"/>
	<polygon points="428.1,290 480.1,290 470.3,280 418.3,280 	"/>
	<polygon points="369.3,230 421.3,230 411.5,220 359.6,220 	"/>
	<polygon points="384,390 436.2,390 446,380 393.8,380 	"/>
	<polygon points="349.4,209.6 349.8,210 401.7,210 391.9,200 349.4,200 	"/>
	<polygon points="349.4,470 357.3,470 367.1,460 349.4,460 	"/>
	<polygon points="388.9,250 440.9,250 431.1,240 379.1,240 	"/>
	<polygon points="349.4,425.1 349.4,430 396.7,430 406.6,420 354.4,420 	"/>
	<polygon points="349.4,450 377,450 386.9,440 349.4,440 	"/>
	<polygon points="364.2,410 416.4,410 426.3,400 374.1,400 	"/>
</g>
<g id="Layer_2">
	<g>
		<path class="st0" d="M53.3,79.7v-0.1H26.5V22.4l29,0.1c2,0.1,3.9,1.1,5.7,3c1.8,1.9,2.8,3.9,3.1,5.9l0.3,2.1l-0.3,37
			c-0.3,2.1-1.3,4-3,5.8c-1.8,1.8-3.7,2.8-5.7,3.1L53.3,79.7z M53.3,71.7l1.3-0.3c0.9-0.3,1.5-0.9,1.7-1.8l0.3-1.2l-0.3-36.1
			c-0.2-0.9-0.7-1.5-1.7-1.8l-1.3-0.1v-0.1h-19v41.4H53.3z"/>
		<path class="st0" d="M96.5,79.6h-4.7v-8.4H78.7v8.4h-4.6v-10l9-23.8h4.6l8.9,23.8V79.6z M90.4,66.6l-5.2-13.8l-5.1,13.8H90.4z"/>
		<path class="st0" d="M110.9,79.6v-29H102v-4.6h22.4v4.6h-8.9v29H110.9z"/>
		<path class="st0" d="M151.4,79.6h-4.7v-8.4h-13.1v8.4H129v-10l9-23.8h4.6l8.9,23.8V79.6z M145.4,66.6l-5.2-13.8l-5.1,13.8H145.4z"
			/>
		<path class="st0" d="M206.2,79.6h-4.4v-7.8h-12.2v7.8h-4.3v-9.3l8.4-22.2h4.3l8.3,22.2V79.6z M200.5,67.4l-4.8-12.8l-4.8,12.8
			H200.5z"/>
		<path class="st0" d="M227.9,79.6l-12.2-22.4v22.4h-4.3V48.1h4.3l12.2,22.4V48.1h4.3v31.4H227.9z"/>
		<path class="st0" d="M252.5,79.6L252.5,79.6l-14.8-0.1V48.1l16,0.1c1.1,0,2.1,0.6,3.1,1.6c1,1,1.6,2.1,1.7,3.3l0.1,1.1l-0.1,20.4
			c-0.1,1.1-0.7,2.2-1.7,3.2c-1,1-2,1.6-3.2,1.7L252.5,79.6z M252.5,75.2l0.7-0.1c0.5-0.2,0.8-0.5,0.9-1l0.1-0.6l-0.1-19.9
			c-0.1-0.5-0.4-0.8-0.9-1l-0.7-0.1v-0.1h-10.4v22.8H252.5z"/>
		<path class="st0" d="M319,79.7v-0.1h-26.8V22.4l29,0.1c2,0.1,3.9,1.1,5.7,3c1.8,1.9,2.8,3.9,3.1,5.9l0.3,2.1l-0.3,37
			c-0.3,2.1-1.3,4-3,5.8c-1.8,1.8-3.7,2.8-5.7,3.1L319,79.7z M319,71.7l1.3-0.3c0.9-0.3,1.5-0.9,1.7-1.8l0.3-1.2L322,32.3
			c-0.2-0.9-0.7-1.5-1.7-1.8l-1.3-0.1v-0.1h-19v41.4H319z"/>
		<path class="st0" d="M357.1,79.6l-6.5-14.5h-6.2v14.5h-4.6V45.9l17.1,0.1c3.1,0.7,4.8,2.4,5.2,5.2l0.2,1.2h-0.1v6.1h0.1l-0.2,1.2
			c-0.4,2.8-2.1,4.6-5.2,5.2l-1.1,0.1l6.5,14.5H357.1z M355.6,60.4l0.7-0.2c0.5-0.2,0.9-0.6,1.1-1.1l0.2-0.7v-6.1l-0.2-0.7
			c-0.2-0.5-0.6-0.9-1.1-1.1l-0.7-0.1v-0.1h-11.2v9.9H355.6z"/>
		<path class="st0" d="M368,79.6V45.9h22.4v4.6h-17.8v9.9h13.1v4.6h-13.1v9.9h17.8v4.6H368z"/>
		<path class="st0" d="M416.9,79.6h-4.7v-8.4h-13.1v8.4h-4.6v-10l9-23.8h4.6l8.9,23.8V79.6z M410.8,66.6l-5.2-13.8l-5.1,13.8H410.8z
			"/>
		<path class="st0" d="M440.2,79.6V60.2l-6.5,19.1l-6.5-19.1v19.4h-4.6V45.9h4.6l6.5,19l6.5-19h4.7v33.7H440.2z"/>
		<path class="st0" d="M457.4,79.6l-1.3-0.2c-2.9-0.4-4.6-2.1-5.2-5.2l-0.1-1.3v-1.4h4.6V73h0.1l0.1,0.8c0.3,0.5,0.6,0.8,1.1,1
			l0.8,0.2h9.2l0.8-0.2c0.5-0.2,0.8-0.5,1.1-1l0.1-0.8h0.1v-6h-0.1l-0.1-0.7c-0.3-0.5-0.6-0.9-1.1-1.1l-0.8-0.2V65l-10.5-0.1
			c-1.3-0.3-2.5-0.9-3.4-1.8c-1-1-1.6-2.1-1.8-3.4l-0.1-1.2v-6l0.1-1.3c0.3-1.3,0.9-2.4,1.9-3.4c1-1,2.1-1.6,3.4-1.7l1.3-0.2v0.1
			h9.2v-0.1l1.3,0.2c1.3,0.2,2.4,0.7,3.4,1.7c1,1,1.6,2.2,1.9,3.4l0.1,1.3v1.1h-4.6v-1.1h-0.1l-0.1-0.7c-0.2-0.5-0.6-0.9-1.1-1.1
			l-0.8-0.2h-9.2l-0.8,0.2c-0.5,0.2-0.8,0.5-1.1,1.1l-0.1,0.7h-0.1v6h0.1l0.1,0.7c0.2,0.5,0.6,0.9,1.1,1.1l0.8,0.2h9.3l1.1,0.2
			c1.3,0.2,2.4,0.7,3.4,1.7c1,1,1.6,2.2,1.9,3.4l0.1,1.3v6l-0.1,1.3c-0.7,3.1-2.4,4.8-5.2,5.2l-1.3,0.2H457.4z"/>
	</g>
	<g>
		<path class="st4" d="M468,18.1c1.2,0,2.3,0.3,3.4,0.9c1.1,0.6,2,1.5,2.6,2.6c0.6,1.1,0.9,2.3,0.9,3.5c0,1.2-0.3,2.4-0.9,3.5
			c-0.6,1.1-1.5,2-2.6,2.6S469.2,32,468,32c-1.2,0-2.4-0.3-3.5-0.9s-2-1.5-2.6-2.6c-0.6-1.1-0.9-2.3-0.9-3.5c0-1.2,0.3-2.4,0.9-3.5
			c0.6-1.1,1.5-2,2.6-2.6C465.7,18.4,466.8,18.1,468,18.1z M468,19.2c-1,0-1.9,0.3-2.9,0.8c-0.9,0.5-1.7,1.2-2.2,2.2
			c-0.5,0.9-0.8,1.9-0.8,2.9c0,1,0.3,2,0.8,2.9s1.2,1.6,2.2,2.2c0.9,0.5,1.9,0.8,2.9,0.8c1,0,2-0.3,2.9-0.8c0.9-0.5,1.6-1.2,2.2-2.2
			s0.8-1.9,0.8-2.9c0-1-0.3-2-0.8-2.9c-0.5-0.9-1.2-1.7-2.2-2.2C470,19.5,469,19.2,468,19.2z M470.3,26.2l1.1,0.3
			c-0.2,0.8-0.6,1.4-1.2,1.8c-0.6,0.5-1.3,0.7-2.2,0.7c-1.1,0-2-0.4-2.6-1.1c-0.7-0.7-1-1.7-1-2.9c0-0.8,0.2-1.5,0.5-2.1
			c0.3-0.6,0.7-1.1,1.3-1.4s1.2-0.5,2-0.5c0.8,0,1.5,0.2,2,0.6c0.5,0.4,0.9,0.9,1.1,1.6l-1.1,0.3c-0.2-0.5-0.5-0.8-0.8-1.1
			c-0.4-0.2-0.8-0.4-1.3-0.4c-0.7,0-1.3,0.3-1.8,0.8s-0.7,1.2-0.7,2.2s0.2,1.7,0.7,2.1c0.4,0.5,1,0.7,1.7,0.7c0.6,0,1-0.2,1.5-0.5
			C469.8,27.2,470.1,26.7,470.3,26.2z"/>
	</g>
	<g>
		<path d="M50,580.5H37.6l-2.5,6.8h3.6c0.4,0,0.8,0.1,1,0.3c0.2,0.2,0.3,0.4,0.3,0.7c0,0.3-0.1,0.5-0.3,0.7c-0.2,0.2-0.5,0.3-1,0.3
			h-7c-0.4,0-0.8-0.1-1-0.3c-0.2-0.2-0.3-0.4-0.3-0.7c0-0.3,0.1-0.5,0.3-0.7c0.2-0.2,0.5-0.3,1-0.3h1.5l8.3-22.2h-5.6
			c-0.4,0-0.8-0.1-1-0.3c-0.2-0.2-0.3-0.4-0.3-0.7s0.1-0.5,0.3-0.7c0.2-0.2,0.5-0.3,1-0.3h9.5l9.2,24H56c0.4,0,0.8,0.1,1,0.3
			c0.2,0.2,0.3,0.4,0.3,0.7c0,0.3-0.1,0.5-0.3,0.7c-0.2,0.2-0.5,0.3-1,0.3h-7c-0.5,0-0.8-0.1-1-0.3c-0.2-0.2-0.3-0.4-0.3-0.7
			c0-0.3,0.1-0.5,0.3-0.7c0.2-0.2,0.5-0.3,1-0.3h3.6L50,580.5z M49.3,578.7l-5.2-13.5h-0.7l-5,13.5H49.3z"/>
		<path d="M72.3,561.4v25.9h7.4c0.5,0,0.8,0.1,1,0.3c0.2,0.2,0.3,0.4,0.3,0.7c0,0.3-0.1,0.5-0.3,0.7c-0.2,0.2-0.5,0.3-1,0.3H63
			c-0.4,0-0.8-0.1-1-0.3s-0.3-0.4-0.3-0.7c0-0.3,0.1-0.5,0.3-0.7s0.5-0.3,1-0.3h7.4v-24H65c-0.4,0-0.8-0.1-1-0.3s-0.3-0.4-0.3-0.7
			c0-0.3,0.1-0.5,0.3-0.7c0.2-0.2,0.5-0.3,1-0.3H72.3z"/>
		<path d="M99.9,561.4v25.9h7.4c0.5,0,0.8,0.1,1,0.3c0.2,0.2,0.3,0.4,0.3,0.7c0,0.3-0.1,0.5-0.3,0.7c-0.2,0.2-0.5,0.3-1,0.3H90.6
			c-0.4,0-0.8-0.1-1-0.3s-0.3-0.4-0.3-0.7c0-0.3,0.1-0.5,0.3-0.7s0.5-0.3,1-0.3H98v-24h-5.4c-0.4,0-0.8-0.1-1-0.3s-0.3-0.4-0.3-0.7
			c0-0.3,0.1-0.5,0.3-0.7c0.2-0.2,0.5-0.3,1-0.3H99.9z"/>
		<path d="M149.5,576.7v10.6h6.5c0.4,0,0.8,0.1,1,0.3s0.3,0.4,0.3,0.7c0,0.3-0.1,0.5-0.3,0.7s-0.5,0.3-1,0.3h-10.9
			c-0.4,0-0.8-0.1-1-0.3s-0.3-0.4-0.3-0.7c0-0.3,0.1-0.5,0.3-0.7s0.5-0.3,1-0.3h2.5v-22.2h-2.5c-0.4,0-0.8-0.1-1-0.3
			c-0.2-0.2-0.3-0.4-0.3-0.7s0.1-0.5,0.3-0.7c0.2-0.1,0.5-0.2,0.9-0.2h20.7v6.4c0,0.4-0.1,0.8-0.3,1c-0.2,0.2-0.4,0.3-0.7,0.3
			c-0.3,0-0.5-0.1-0.7-0.3c-0.2-0.2-0.3-0.5-0.3-1v-4.5h-14.4v9.7h6.8v-2.1c0-0.4,0.1-0.8,0.3-1c0.2-0.2,0.4-0.3,0.7-0.3
			c0.3,0,0.5,0.1,0.7,0.3c0.2,0.2,0.3,0.5,0.3,1v6.1c0,0.4-0.1,0.8-0.3,1s-0.4,0.3-0.7,0.3c-0.3,0-0.5-0.1-0.7-0.3
			c-0.2-0.2-0.3-0.5-0.3-1v-2.1H149.5z"/>
		<path d="M192.1,579.6c0,2.8-1,5.3-3.1,7.3c-2.1,2-4.5,3-7.4,3c-2.9,0-5.4-1-7.5-3c-2-2-3.1-4.4-3.1-7.2c0-2.8,1-5.3,3.1-7.3
			c2-2,4.5-3,7.5-3c2.9,0,5.4,1,7.4,3C191.1,574.4,192.1,576.8,192.1,579.6z M190.2,579.6c0-2.3-0.8-4.3-2.5-6s-3.7-2.5-6.1-2.5
			s-4.4,0.8-6.1,2.5c-1.7,1.6-2.5,3.6-2.5,5.9c0,2.3,0.8,4.3,2.5,5.9c1.7,1.7,3.7,2.5,6.1,2.5s4.4-0.8,6.1-2.5
			S190.2,582,190.2,579.6z"/>
		<path d="M206.9,570v4.7c2.5-2.2,4.3-3.6,5.5-4.2c1.2-0.6,2.3-0.9,3.4-0.9c1.1,0,2.2,0.4,3.1,1.1s1.4,1.3,1.4,1.7
			c0,0.3-0.1,0.5-0.3,0.7c-0.2,0.2-0.4,0.3-0.7,0.3c-0.1,0-0.3,0-0.4-0.1s-0.3-0.2-0.6-0.5c-0.5-0.5-1-0.9-1.4-1.1
			c-0.4-0.2-0.8-0.3-1.1-0.3c-0.8,0-1.8,0.3-3,1s-3.2,2.2-6,4.8v10.2h8.3c0.5,0,0.8,0.1,1,0.3s0.3,0.4,0.3,0.7
			c0,0.3-0.1,0.5-0.3,0.7s-0.5,0.3-1,0.3h-14.8c-0.4,0-0.8-0.1-1-0.3c-0.2-0.2-0.3-0.4-0.3-0.7c0-0.3,0.1-0.5,0.3-0.6s0.5-0.3,1-0.3
			h4.6v-15.5h-3.5c-0.4,0-0.8-0.1-1-0.3c-0.2-0.2-0.3-0.4-0.3-0.7c0-0.3,0.1-0.5,0.3-0.7c0.2-0.2,0.5-0.3,1-0.3H206.9z"/>
		<path d="M265.2,565.2v22.2h4.9c0.4,0,0.8,0.1,1,0.3s0.3,0.4,0.3,0.7c0,0.3-0.1,0.5-0.3,0.7s-0.5,0.3-1,0.3h-11.7
			c-0.4,0-0.8-0.1-1-0.3s-0.3-0.4-0.3-0.7c0-0.3,0.1-0.5,0.3-0.7s0.5-0.3,1-0.3h4.9v-22.2h-7.7v6.4c0,0.5-0.1,0.8-0.3,1
			c-0.2,0.2-0.4,0.3-0.7,0.3c-0.3,0-0.5-0.1-0.7-0.3c-0.2-0.2-0.3-0.5-0.3-1v-8.3h21.1v8.3c0,0.5-0.1,0.8-0.3,1
			c-0.2,0.2-0.4,0.3-0.7,0.3c-0.3,0-0.5-0.1-0.7-0.3c-0.2-0.2-0.3-0.5-0.3-1v-6.4H265.2z"/>
		<path d="M285.6,561.4v11.4c1.2-1.3,2.3-2.2,3.4-2.7c1.1-0.5,2.3-0.8,3.7-0.8c1.5,0,2.7,0.3,3.7,0.8c1,0.5,1.9,1.3,2.6,2.3
			c0.7,1.1,1,2.2,1,3.3v11.5h2.1c0.5,0,0.8,0.1,1,0.3c0.2,0.2,0.3,0.4,0.3,0.7c0,0.3-0.1,0.5-0.3,0.7c-0.2,0.2-0.5,0.3-1,0.3h-6.1
			c-0.5,0-0.8-0.1-1-0.3s-0.3-0.4-0.3-0.7c0-0.3,0.1-0.5,0.3-0.7s0.5-0.3,1-0.3h2.1v-11.4c0-1.3-0.5-2.5-1.5-3.4s-2.3-1.4-4.1-1.4
			c-1.4,0-2.5,0.3-3.5,1c-0.7,0.5-1.9,1.6-3.5,3.3v11.8h2.1c0.4,0,0.8,0.1,1,0.3s0.3,0.4,0.3,0.7c0,0.3-0.1,0.5-0.3,0.7
			s-0.5,0.3-1,0.3h-6.1c-0.4,0-0.8-0.1-1-0.3s-0.3-0.4-0.3-0.7c0-0.3,0.1-0.5,0.3-0.7s0.5-0.3,1-0.3h2.1v-24h-2.5
			c-0.4,0-0.8-0.1-1-0.3c-0.2-0.2-0.3-0.4-0.3-0.7c0-0.3,0.1-0.5,0.3-0.7c0.2-0.2,0.5-0.3,1-0.3H285.6z"/>
		<path d="M329.6,580h-19.2c0.3,2.4,1.3,4.3,3.1,5.8s3.8,2.2,6.4,2.2c1.4,0,2.9-0.2,4.4-0.7c1.5-0.5,2.8-1.1,3.8-1.8
			c0.3-0.2,0.5-0.3,0.7-0.3c0.2,0,0.4,0.1,0.6,0.3s0.3,0.4,0.3,0.7s-0.1,0.5-0.4,0.7c-0.7,0.7-2,1.4-3.8,2.1c-1.8,0.6-3.7,1-5.6,1
			c-3.2,0-5.9-1-8.1-3.1c-2.2-2.1-3.2-4.6-3.2-7.6c0-2.7,1-5,3-7c2-1.9,4.5-2.9,7.5-2.9c3.1,0,5.6,1,7.6,3S329.6,576.9,329.6,580z
			 M327.7,578.2c-0.4-2.1-1.4-3.7-2.9-5c-1.6-1.3-3.5-1.9-5.7-1.9s-4.1,0.6-5.7,1.9c-1.6,1.3-2.6,2.9-3,5H327.7z"/>
		<path d="M382.8,565.8v-1.3c0-0.4,0.1-0.8,0.3-1c0.2-0.2,0.4-0.3,0.7-0.3s0.5,0.1,0.7,0.3c0.2,0.2,0.3,0.5,0.3,1v5.2
			c0,0.5-0.1,0.8-0.3,1c-0.2,0.2-0.4,0.3-0.7,0.3c-0.3,0-0.5-0.1-0.6-0.3c-0.2-0.2-0.3-0.5-0.3-0.9c-0.1-1.2-0.8-2.3-2-3.3
			c-1.7-1.3-3.7-2-5.9-2c-1.5,0-2.8,0.3-4.1,1c-1,0.5-1.7,1-2.3,1.7c-1,1.2-1.8,2.4-2.4,3.8c-0.4,1-0.6,2.2-0.6,3.5v3.3
			c0,2.8,1,5.2,3,7.2s4.4,3.1,7.1,3.1c1.6,0,3.1-0.3,4.3-1s2.5-1.7,3.7-3.1c0.3-0.3,0.5-0.5,0.9-0.5c0.3,0,0.5,0.1,0.7,0.2
			c0.2,0.2,0.2,0.4,0.2,0.6c0,0.3-0.3,0.9-1,1.5c-1.2,1.4-2.6,2.4-4.1,3.1c-1.5,0.7-3.1,1-4.7,1c-1.4,0-2.7-0.3-4.1-0.8
			c-1.1-0.4-2-0.9-2.7-1.4c-0.7-0.5-1.6-1.4-2.6-2.7c-1-1.3-1.7-2.4-2.1-3.5c-0.4-1.1-0.6-2.2-0.6-3.5v-3.8c0-1.8,0.5-3.7,1.5-5.6
			c1-1.9,2.4-3.4,4.1-4.4c1.7-1,3.6-1.5,5.6-1.5C377.9,562.7,380.6,563.7,382.8,565.8z"/>
		<path d="M412.6,579.6c0,2.8-1,5.3-3.1,7.3c-2.1,2-4.5,3-7.4,3c-2.9,0-5.4-1-7.5-3c-2-2-3.1-4.4-3.1-7.2c0-2.8,1-5.3,3.1-7.3
			c2-2,4.5-3,7.5-3c2.9,0,5.4,1,7.4,3S412.6,576.8,412.6,579.6z M410.7,579.6c0-2.3-0.8-4.3-2.5-6c-1.7-1.6-3.7-2.5-6.1-2.5
			c-2.4,0-4.4,0.8-6.1,2.5c-1.7,1.6-2.5,3.6-2.5,5.9c0,2.3,0.8,4.3,2.5,5.9c1.7,1.7,3.7,2.5,6.1,2.5c2.4,0,4.4-0.8,6.1-2.5
			C409.9,583.9,410.7,582,410.7,579.6z"/>
		<path d="M438.9,561.4v25.9h2.5c0.5,0,0.8,0.1,1,0.3c0.2,0.2,0.3,0.4,0.3,0.7c0,0.3-0.1,0.5-0.3,0.7c-0.2,0.2-0.5,0.3-1,0.3H437
			v-3.7c-2.2,3-5,4.4-8.3,4.4c-1.7,0-3.3-0.4-4.9-1.3s-2.8-2.2-3.7-3.8c-0.9-1.7-1.4-3.4-1.4-5.1c0-1.8,0.5-3.5,1.4-5.1
			c0.9-1.6,2.1-2.9,3.7-3.8c1.6-0.9,3.2-1.4,4.9-1.4c3.3,0,6.1,1.5,8.3,4.4v-10.5h-2.5c-0.5,0-0.8-0.1-1-0.3
			c-0.2-0.2-0.3-0.4-0.3-0.7c0-0.3,0.1-0.5,0.3-0.7c0.2-0.2,0.5-0.3,1-0.3H438.9z M437,579.6c0-2.4-0.8-4.4-2.4-6
			c-1.6-1.6-3.5-2.4-5.8-2.4c-2.2,0-4.2,0.8-5.8,2.4c-1.6,1.6-2.4,3.6-2.4,6c0,2.3,0.8,4.3,2.4,6c1.6,1.6,3.5,2.4,5.8,2.4
			c2.2,0,4.1-0.8,5.8-2.4C436.2,584,437,582,437,579.6z"/>
		<path d="M467.4,580h-19.2c0.3,2.4,1.3,4.3,3.1,5.8s3.8,2.2,6.4,2.2c1.4,0,2.9-0.2,4.4-0.7c1.5-0.5,2.8-1.1,3.8-1.8
			c0.3-0.2,0.5-0.3,0.7-0.3c0.2,0,0.4,0.1,0.6,0.3s0.3,0.4,0.3,0.7s-0.1,0.5-0.4,0.7c-0.7,0.7-2,1.4-3.8,2.1c-1.8,0.6-3.7,1-5.6,1
			c-3.2,0-5.9-1-8.1-3.1c-2.2-2.1-3.2-4.6-3.2-7.6c0-2.7,1-5,3-7c2-1.9,4.5-2.9,7.5-2.9c3.1,0,5.6,1,7.6,3S467.4,576.9,467.4,580z
			 M465.5,578.2c-0.4-2.1-1.4-3.7-2.9-5c-1.6-1.3-3.5-1.9-5.7-1.9s-4.1,0.6-5.7,1.9c-1.6,1.3-2.6,2.9-3,5H465.5z"/>
	</g>
</g>
</svg>
