<?xml version="1.0" encoding="utf-8"?>
<!-- Generator: Adobe Illustrator 21.1.0, SVG Export Plug-In . SVG Version: 6.00 Build 0)  -->
<svg version="1.1" id="Layer_1" xmlns="http://www.w3.org/2000/svg" xmlns:xlink="http://www.w3.org/1999/xlink" x="0px" y="0px"
	 viewBox="0 0 595.3 841.9" style="enable-background:new 0 0 595.3 841.9;" xml:space="preserve">
<path d="M367.4,420.2c-1.7,0.7-2,3.8,1.7,3.2c9.4-1.4,27.5-12.7,33.7-21c3.7-5-1.7-13.2-7.9-3.5
	C389.5,407.3,376.6,416.3,367.4,420.2 M367.5,437.6c7.8,4.1,11.7,10.7,11.7,17.3c0,3.9-5.9,7.4-9.9,4c5.8-2.4,3.9-9.5-1.4-13.1
	c-9.2-6.1-35.3-10-46.2-5.3c-5.6,2.4-4.1-6.7,2.8-8.8C336.3,428.3,360.4,433.9,367.5,437.6z M381.2,423.3
	c18.8-4,44.6-23.2,35.4-34.3c-4.5-5.3,3.1-12.2,8.1-2.4c7.9,15.7-20.3,38.4-43.2,40C377.5,426.9,377.1,424.2,381.2,423.3z
	 M347.5,423.6c20.3-0.1,57.3,16.9,70,11c7.9-3.7,11.2,1.5,6,4.9c-15.4,10.1-59.2-10.3-77.4-11.2C340.5,428,341.5,423.6,347.5,423.6z
	 M531.6,460.1c-0.3,13.2,0.3,25.8-0.6,34.7c5-9.1,6.6-35.9,9-47.4c3.7-17.1,9.8-34.4,24-35.4c6.2-0.4,7.8,3.5,7.1,6.2
	c-0.4,1.5-1.2,1.9-2.5,2.3c-4.2,1.4-2.7,5,0.9,4.7c13.6-0.9,10.7-25.6-4.8-25.6C537.1,399.4,532.1,442.8,531.6,460.1z M523,353.8
	c-0.7,3.5-3.7,7.6-7.6,7.4c-0.8,0-1.4-0.3-1.5-0.9c-0.8-4.2-8-1.5-4,3.3c5.4,6.5,20.8,1.7,21.4-14.4c0.5-13.3-11-23.7-23.8-24.1
	c-20.7-0.7-30.5,17.8-33.6,36.2c-4.6,27.1,5.3,48.4,14.3,73.3c9.3,25.6,14.5,48.2,15.9,79.2c9.3-43.1-14.3-93.2-14.1-139.3
	c0-14.2,2-34.7,20.5-34.4C517.9,340.2,524.7,344.6,523,353.8z M495.2,555c21.7-33.7,17.4-56.8,13.8-93.1
	c-3.1-31.4-3.9-72.8,32.4-78.8C491.5,427.1,557.7,508.4,495.2,555z M510.1,284c-6.1-0.2-10.9,3-10.6,9.1c0.2,5.9,5.6,10.2,11.1,11.2
	c11.1,1.8,20.7-10.6,19.3-20.9c-1.3-9.9-11.7-20.7-23.1-20.7c-14.9,0-28.2,11.4-36.7,31.1c-10.6,24.6-19,91.2-0.6,110.2
	c-7.5-30.3-5.7-68.8,4.7-97.8c5.4-15,13.5-27.2,25.4-30.4c9.2-2.5,20.1,0.3,20.1,11.8c0,5.1-2.8,9.9-7.5,10
	C504,297.4,503.8,286.9,510.1,284z M423.7,196.4c16.3,12.6,41.5,40.8,44.9,61.2c0.9,5,0.4,10-2.6,13.6c-4,5-11.8,6.7-17,2.1
	c-2.5-2.2-4.6-8.2,0.4-6.4c5.8,2.1,6.8-3.5,6.7-8.1c-0.5-19.6-20.5-47-34.9-60.2C416.3,194.1,418.2,192.1,423.7,196.4z M479.9,245.8
	c-19.3-33.5-46.2-51.9-72.3-66.6c-4.7-2.7-3.1-5.1,1.7-2.8c30.3,14.4,64.4,36.7,83,63.8C499.3,250.4,487.2,258.4,479.9,245.8z
	 M454.6,399.8c3.9-0.4,6.5,2.5,6.7,6.3c0.3,5.6-3.6,7.7-6.6,11.1c-1.6,1.9-2.5,3.8-2.5,7.5c0,2.3-0.1,5.4-0.8,5.8
	c-1,0.6-2.4-2.5-3.4-5.5C445.4,417.3,445.3,400.9,454.6,399.8z M445.3,378.7c7.6-1.5,10.8,8.6,3.7,14.6c-3.6,3-6.3,5.2-6.5,9.9
	c-0.1,1.5,0.2,5.3-1.4,5.8c-1.8,0.6-3.4-5-3.7-6.4C435.7,395,436.6,380.4,445.3,378.7z M438.8,354.8c3.9-2.5,7.9-1.3,9.2,2.2
	c0.6,1.7,0.7,3.3,0.3,4.7c-0.8,2.9-2.8,4.6-4.9,6.2c-4.4,3.4-7,6-7.3,11.9c-0.2,3.8-4,4.6-4.9,0.3
	C429.6,372.4,431.6,359.5,438.8,354.8z M429.5,358.8c1.5-6.9,5.9-12.3,9.5-19.1c5.5-10.3,7.7-22.4,8-33.9c0.1-2.8,0.2-5.6,0.8-7.6
	c2.6-8.7,13.2-6.7,12.8,3.6C459.7,330.7,444.3,342.3,429.5,358.8z M432.6,599.8c-6.4,2.7-7-2.3-5.4-7.4c2.5-8.4-3.2-15.8-9.7-20.2
	c-4.2-2.9-2-5,1.6-5.4C439.6,564.3,454.6,590.6,432.6,599.8z M498.5,530.4c-0.3,1.4-1.2,2.6-2.2,4c-0.7,1-1.3,2-1.8,3.4
	c-0.2,0.7-0.5,1.3-0.9,1.9c-2.1,3-4,2-5.2-0.2c-5.4-9.9-11.5-13.7-24.2-9.1c-3.6,1.3-5.4-0.6-3.3-4.2c9.9-17.1,30.9-19.7,37.4-0.6
	C498.7,526.8,498.8,529.1,498.5,530.4z M448,544.8c14.3-16.8,50-2.6,31.6,23.6c-3.4,4.8-7.3,4-8-0.6c-1.9-13-8.3-18.3-21.2-17.6
	C446.3,550.4,444.8,548.6,448,544.8z M434.5,565.1c-3.8-0.4-4.4-2.4-3-3.8c15.4-15.2,49.6,3.9,24.5,28.2c-4.1,4-7.3,0.4-6.9-3.2
	C450.3,577,447.7,566.5,434.5,565.1z M474.8,427.7c0,2-1.8,2.6-3.4,3c-4.7,1.1-7.6,5.2-9.1,12.1c-1.5,6.8-3.4,2.6-4.2-0.6
	c-1.9-7.4-0.4-27.9,9.2-26.7C471.4,416,474.7,422.2,474.8,427.7z M478.1,436.7c5.2-0.6,8.2,6.9,7.7,12.4c-0.3,3.2-2.5,2.8-4.5,3
	c-6.9,0.4-10,5.6-13.5,13.7c-2.5,6-4.2,0.8-4.2-2C463.7,454.8,467.5,438,478.1,436.7z M484.8,458.9c6.3,0.3,9.9,8.6,9.9,15.1
	c0,4.3-2.2,4.2-4.4,3.8c-7-1.2-13.7,0.3-18.8,9.7c-3.3,6-5.3,2.8-5-1.2C467.2,478.7,474.9,458.4,484.8,458.9z M465.4,505.5
	c9.4-20.1,33-31.4,33.1-2.8c0,5.8-2.6,4.8-5.1,3.4c-7.6-4.4-18.2-2.5-24.9,3.6C464.7,513,463.4,509.6,465.4,505.5z M404.5,568.3
	c9.9,5.8,18.3,18.1,14.4,29.5c-0.9,2.5-2.3,4.5-5.6,4.3c-2.3-0.1-6-0.7-8-1.2c-2.8-0.8-3.7-2.7-2.4-5.3c4.7-10,1.4-18.3-2.9-24.9
	C397.1,566.5,400.6,566,404.5,568.3z M384.4,562.7c10.4,4.8,16.7,16.9,14.3,28.1c-0.5,2.2-1.3,5.1-3.6,5.5
	c-1.8,0.3-8.5-0.6-10.5-1.5c-2.1-0.9-2-2.5-1.4-5c2.2-9.2,1-14.2-3.5-23.7C376.9,560,379.9,560.7,384.4,562.7z M359.5,571.3
	c1.3-4.2,1-10.2-1.2-14.9c-1.4-3,0.9-4.5,3.6-2.4c9,7.1,15.7,16.5,15.7,30.2c0,3.3-2.4,4.4-5.3,3.3c-4.5-1.8-10.4-4.8-13.3-8.7
	C357.2,576.4,358.8,573.6,359.5,571.3z M357.3,681.9c-16.4,6.6-80.6-2.9-79.4-24c0.5-8.2,7.4-7,7.4-0.1
	C285.3,673,341.1,681.3,357.3,681.9z M345.7,674.7c4.2-0.1,4.2,2.5,0.3,2.6c-10.8,0.4-27.3-3.4-35.3-11.4c-2.5-2.5-4.1-5.4-3.7-8.8
	c1-9.2,13-6.5,8.2,1.6c-0.7,1.2-0.2,2.8,0.8,4C320.5,668.6,338.2,674.8,345.7,674.7z M339.3,669.2c1.2-0.7-2.5-10.6-7.3-16
	c-4.5-5-9-1.4-6.8,3.9C326.6,660.4,336.4,670.9,339.3,669.2z M295.5,679.5c-19.4-2.7-61.6-26.8-58.9-44.9c0.7-5,5.6-8.1,10.4-8
	c2.6,0,4.7,0.8,6.2,2.1c3.2,2.9,2.9,9.6-0.8,11c-2.1,0.8-4.8-0.4-4.8-2.9c0.1-5.9-6.1-4.8-5.9-0.1c0.2,5.6,3.7,8.9,7.9,9.4
	c14.2,1.5,15.9-20.4,1.8-25.1c-9.5-3.2-19.5,2.9-21.3,12.8c-2.8,15.8,21.3,35,34.7,39.8c-37.9-12.8-67.2-44.1-77.3-83.2
	c4.1,8.9,21.1,18.5,33.8,11.1c5.2-3.1,7.5-9,5.8-13.3c-2.6-6.7-12.8-6.9-13.9-1.3c-0.1,0.5,0,1,0.3,1.5c0.7,1.1,2.2,1.9,3.6,1
	c2-1.3,3.7-0.5,4.4,1c2,4.7-6.1,7-9.4,7.2c-13.8,0.7-27.2-17.2-28.2-32.1c-0.1-1.7-0.1-3.4-0.1-5.1c0-57.6,40.7-105.6,94.9-116.9
	c0.8-2.5,2-4.8,3.6-6.8c0.3-0.4,0.7-0.8,1-1.2c-60.4,9.6-106.5,61.8-106.5,124.9c0,69.8,56.6,126.5,126.5,126.5
	c7.5,0,14.9-0.7,22-1.9c-2.9-0.4-5.8-0.8-8.6-1.4c-3.7-0.7-9.2-1.9-15-3.7C299.5,679.7,297.5,679.6,295.5,679.5z M309.2,480.4
	c4.9-15.3,7.9-40.7-11.3-41.5c-9.1-0.4-14.3,10.6-9.1,16.1c1.3,1.3,3.1,2.1,5.4,2c3.5-0.2,5-3.5,2.8-5.6c-3.2-3,0.2-5.6,3.6-3.4
	c6.1,4,2.1,15.8-7.2,15.8c-13.7,0-17.6-16.2-9.7-25.9c3.5-4.3,8.9-7,15-6.8c18.4,0.7,22.9,18.7,23.2,33.6c0.1,2.6,0,5.3-0.2,7.9
	c-0.6,0.4-1.2,0.9-1.7,1.4c-0.8,0.8-1.6,1.7-2.4,2.6c-3,3.5-4,2.7-8,3.6C309.5,480.3,309.3,480.4,309.2,480.4z M317.8,552.2l0.2-0.3
	c1.7-2.3,3-4.9,3.9-7.6c2.8-8.8-0.7-17.5-7.6-23.2c-4-3.4-4.8-6.6-0.1-9.7c4-2.6,7.1-6.9,5.6-11.9c-0.8-2.6-2.3-4-4.2-4.6
	c-2.9-0.9-5.5-0.6-7.3,1.2C296,508,299.2,542.8,317.8,552.2z M450,661.6c-18.7,10.7-43.3,7.5-57.1-2.2c25.9,5.4,42.3,0.8,51.1-6.5
	c4.1-3.4,4.2-5.2-1.3-3.9c-72.4,17.1-65.8-45.3-143.4-40.3c-5.8,0.4-9.5-2.9-13.3-6.8c-5.2-5.3-10.7-10.3-15.7-15.7
	c-2.3-2.5-0.4-2.8,1.5-2.4c8.3,1.6,15.9,5.1,24.9,6.5c3.8,0.6,5.2,5.2-1.4,4.2c-4.1-0.6-7.8-3.5-12.9-4.7c-2.3-0.5-4.8,0.7-2.1,2.4
	c5.7,3.5,9.2,9.5,15.2,10.1c10.6,0.9,16.9,1,24.1,1.8c21.6,2.3,37.8,3.6,57,22.1c11.7,11.3,21,15.9,31.7,17.2
	c26.4,3.2,49.8-10.6,78.6-9.7C475.6,643.9,463.2,653.3,450,661.6z M517.5,602.1c-1.7,1.9-4.9,1.5-9,0.2c-14.7-4.6-35.3-3.8-51.2-0.1
	c-22.9,5.4-49.7,8.8-65.3,0.2c-4.5-2.5-6.9,0.1-2.6,4.5c9.1,9.1,28.7,12.9,49.2,9.8c31.9-4.8,71.5-6.2,62,4.1
	c-2.3,2.3-4.6,4.6-7,6.9c-16.3-4.6-40.8-1.6-59.5,1.4c-17.6,2.8-28,1.6-41.8-11.1c-11-10.1-20.3-23.5-31.7-32.3
	c-5.9-4.6-6.9-4.6-13.9-2.8c-5.8,1.5-10.7,2.5-17.5,2.6c-3.7,0-3.4-3-0.2-3.2c20.7-1.4,26.2-11.2,24.2-28.6
	c-2-17-14.3-32.6-16.6-47.8c16.7,18.6,33.6,30.7,48.9,30.7c10.7,0,22.1-7.8,22-19.3c-0.1-4.8-2-9-4.8-11.7c-7-6.9-18.9-3.7-19.8,5.9
	c-0.4,5,3.7,10.7,8.8,10.7c4.1,0,4.8-5.6,0.7-6.2c-2.3,0-4.4-1.5-4.4-3.9c0-2.8,2.9-4.2,5.7-4.1c4.8,0.2,7.3,4.3,7.3,8.7
	c0,7.9-7.6,12.1-14.7,12.4c-23.9,0.8-46.4-35.4-56.9-52.6c-2.8-6-6.9-1.9-10.1,1.9c-3.5,4.2-5.3,3.4-9.1,4.3
	c-5.6,1.3-17.4,7.9-20.8,12.5c-2.1,2.9-0.4,5.6,3.4,3.6c4.4-2.4,11.1-5,16.9-5.7c5.5-0.7,10.4,0.4,12.1,6.3c1.7,5.8-1.5,11-6.4,14.2
	c-2.8,1.8-3.5,3.3,0.3,6.4c7.6,6.3,11.3,15.9,8.2,25.4c-3,9.1-10.9,17.2-21,20.7c-5.9,2.1-13.8,2.9-16.9-3.2
	c-1.6-3.1-2.3-5.9-2.7-7.8c-0.8-3.9-3.4-3.6-4.9-1.5c-1.7,2.5-1.3,7.5-2.6,10.5c-1.7,4-9.3,0.4-12.5-1.5c-3.6-2-2.9-4.6-2.7-8.3
	c0.1-2.5,0.3-5.9-1.8-6.8c-2.9-1.2-4.4,3.6-5.2,5.8c-1.5,3.8-3.3,8.8-7.2,5.9c-4.7-3.5-1.6-14.3,1.3-19.2c3.2-5.4,4.7-12.8-3.9-5.9
	c-7.5,6-11.3,15.2-18,22.5c-4.2,4.6-1.8,6.7,1.6,8.1c1.6,0.7,4.1,1.3,5.5,2.3c1.9,1.3,1.9,3.7-1.2,2.7c-2.4-0.8-3.7-1.4-5.9-2.3
	c-2.8-1.2-4.1,0.8-2,3.5c3,4,17.1,20,17.1,11.1c0-1.7-0.8-4.1,3.8-3c13.6,3.4,25,15,34.4,24.8c15.6,16.3,25.6,29.9,37.2,38
	c5.2,3.6,7.4,2.8,3.4-2.5c-0.2-0.2-0.3-0.4-0.5-0.6c-3.2-4-5.9-8.5-8.1-12.9c-1.4-2.8-1.1-6.7,5.1-1.7c19.6,16,20.9,38.2,47.8,57.8
	c5.9,4.3,6.3,0.2,2.5-3.9c-10.1-10.9-16.4-17.7-20-34.8c-0.7-3.2,1.6-4,3.3-2.1c22.8,26.7,43.8,36.6,67.6,35.1
	c2.1-0.1,3.7,1.6-0.2,3.6c-36.3,16.8-76.6,26.1-119.2,26.1c-157.2,0-284.6-127.4-284.6-284.6S140.8,136.7,298,136.7
	s284.6,127.4,284.6,284.6c0,6.2-0.2,12.3-0.6,18.4c0.5-10.1-20.9-12.6-33.6,20.9c-6.2,16.5-9.7,34.7-15.7,51.3
	c-8.9,24.4-25.1,43.1-44,60.5c-3.5,3.2-3.7,3.9,0.9,1.1c50.8-31.4,54.8-63.7,77-111.7c3.3-7.2,15.7-11.2,12.8,0.7
	c-3.4,14.2-15,14-25,41.4c-1.1,3-1.5,4.5,1.1,1.4c8-9.4,21.4-27.7,19.4-18.5c-0.7,2.8-1.4,5.5-2.1,8.3c-3,10.2-20.4,15.1-31.1,33.1
	c-1.6,2.7-1.9,4.1,1.1,1.4c6.7-5.7,25.3-20.8,23.1-12.3c-0.2,0.6-0.5,1.3-0.7,1.9c-2.1,5.3-29.3,15.4-40,29.6
	c-1.9,2.5-2.5,3.2,1.1,1.4c5.7-2.7,34.2-19.6,30.9-11.5c-1.1,2.4-2.2,4.7-3.3,7c-0.7,1.2-4.1,1.9-7.9,2.7c-23,5.1-36.4,24-56.1,33.6
	c-6.8,3.3-5.7,3.8-14.3,6.3c-4.8,1.4-9.5,4.4-13.2,6.9c-2.3,1.6-3.3,2.9,0.5,1.8c3.2-0.9,6.1-2.1,8.4-3c4.1-1.6,7.3-1.4,11.5-2.6
	c3.8-1.1,6.7-4.1,11-4.9c9.2-1.7,32.3-17.1,44.4-24.2c2.5-1.5,10.5-7.1,7.8-1.8c-1.8,3.2-3.7,6.4-5.6,9.5c-0.7,0.9-3.1,1.4-4.5,2.6
	c-6.7,6-19.6,13.4-30.3,16.3c-1.2,0.3-2.3,0.6-3.4,0.8c-3.9,0.7-3.3,2.2-7.9,3c-0.8,0.1-3.2,1.4-5.4,2.3c-5.2,2-2,1.1,0.1,1.2
	c1.3,0.1,2.6,0.5,3.5,0.2c2.2-0.6,4-0.4,6.2-0.8c1.8-0.3,3.2-1.6,5-1.9c8.1-1.3,12.3-2,20.3-5.7c1.1-0.5,6.8-4.1,5.7-2.1
	C525.9,591.5,521.8,596.8,517.5,602.1z M297.8,126.2c-162.9,0-295,132.1-295,295s132.1,295,295,295s295-132.1,295-295
	S460.7,126.2,297.8,126.2z M426.1,412.2c-1.2-5,3.7-5.9,6.2-2.1c4.2,6.4-0.2,23.9-34.8,20.7c-6.1-0.6-5.3-1.8-0.6-3.3
	c8.4,0.2,24-0.8,28.9-9.3C426.8,416.3,426.6,414.5,426.1,412.2z"/>
<path d="M318.4,184.5c0-11.5-28.7-18-37.1-19.8c-6.8-1.5-13.6-2.6-20.5-3.6c-3.7-0.5-7.5-0.9-11.2-1.2c4.2-0.9,9.1-1,12.8-0.9
	c7.8,0.1,15.8,1,23.5,2.4c10.2,1.9,35.9,8.2,38.3,20.6c0.2,0.8,0.2,1.6,0.2,2.4C324,191.6,318.4,190.6,318.4,184.5 M219.1,252.2
	c-2.3,9.8-0.7,15.2,3.5,24.2c0.2,0.5,1.5,3.3,0.9,3.8c-0.7,0.6-4-1-4.7-1.3c-7.1-3.3-12.3-10.2-13.9-17.8c-0.6-3.1-0.7-6.4,0-9.5
	c0.3-1.6,1.1-4.7,3.1-5c1.8-0.3,8.4,0.7,10.1,1.4C220,248.7,219.5,250.5,219.1,252.2z M242.9,270.7c-1.5,4.7-0.9,10.9,1.2,15.4
	c1.2,2.5-0.6,3.1-2.5,1.6c-9.7-7.6-15.4-17-15.4-29.7c0-2.8,2-3.6,4.4-2.6c4.4,1.8,10.2,4.7,13,8.5
	C245.1,266,243.5,268.6,242.9,270.7z M151.5,251.9c1.3,0.7,1.8,2.6,1.6,4c-1.3,11.2,2.9,20.6,15.3,21.9c0.8,0.1,3,0.5,3,1.6
	c0,0.4-0.2,0.8-0.5,1c-4.4,4.4-10.7,5.9-16.7,4.9c-5.5-0.9-11.1-4-13.8-8.9c-1.8-3.2-2.2-6.8-1.3-10.3c1.2-5,4.7-9.4,8.3-12.9
	C148.4,252.2,150.1,251.1,151.5,251.9z M175.2,249.6c-2.6,8.6,3.2,16.4,10,21c0.6,0.4,2.3,1.7,2,2.6c-0.3,1-2.4,1.5-3.3,1.6
	c-6.2,0.7-12.5-1.3-17.2-5.4c-3.9-3.5-6.9-8.7-6.4-14.1c0.5-6.1,5.1-10.1,10.4-12.3C176.7,240.5,176.5,245.4,175.2,249.6z
	 M203.3,274.4c-0.7,0.8-3.8-0.7-4.4-1.1c-9.4-5.5-17.9-17.5-14.2-28.7c0.8-2.5,2.2-4,5-3.8c2.4,0.1,5.6,0.6,7.9,1.2
	c2.4,0.7,3.1,2.1,2,4.3c-4.3,9.1-2.3,17.4,3,25.5C202.8,272.3,203.8,273.9,203.3,274.4z M70.7,382.1c-0.5,19.5-6.2,60-32.4,59.9
	c-4.9,0-8.9-2.7-11.1-7c-2.2-4.4-2.7-11,0.9-14.8c1.5-1.6,3.4-2.3,5.5-2.5c2.9-0.2,4.1,2.3,0.7,3.4c-1.6,0.5-2.5,1.1-3,2.8
	c-0.4,1.7,0,3.5,1.1,4.8c1.6,1.9,4.3,2.3,6.7,2.2c16.2-1.2,21.8-23,24.6-36c0.7-3.3,1.2-6.8,1.7-10.2c0.6-4.2,1.1-8.4,1.7-12.7
	c0.7-4.7,1.4-9.5,2.4-14.1c0.4-2,1-4.3,1.7-6.5c-0.2,3.9-0.2,7.9-0.2,11.8C70.8,369.5,70.9,375.8,70.7,382.1z M93.4,380.4
	c2,20,3.8,49.6-9.8,66.1c-5.2,6.3-11.9,9.9-19.7,11.6C110,414.2,49,336.3,105.3,290.2C86,321.8,89.8,344.2,93.4,380.4z M98.6,334.1
	c1,16,3.3,31.6,7.4,47.3c2.3,9,5.2,17.7,8.3,26.4c8.9,24.6,18.8,46,14.3,72.9c-3,17.7-12.4,36.4-32.9,35.7
	C83.1,516,71.9,505.9,72.4,493c0.2-5.8,2.6-11.4,7.6-14.5c3.3-2.1,8.1-3,11.4-0.6c0.5,0.3,0.9,0.7,1.2,1.1c3.2,3.9-2.3,5.9-2.9,2.7
	c-0.2-1-1.2-1.4-2.1-1.4c-4.2-0.2-7.6,4.1-8.3,8c-1.7,9.1,4.7,14.4,13.2,14.5c19.1,0.3,21.1-20.7,21.2-35.1
	c0-18.6-3.7-37.4-7.4-55.5c-2.9-14.2-6-28.5-7.7-42.9C97.3,357.7,96.9,345.8,98.6,334.1z M291.8,176.8c2.2,2.2,3.9,5,3.6,8.3
	c-0.2,1.9-1,3.9-2.9,4.8c-1.3,0.6-2.9,0.5-4-0.4c-1.8-1.5-1.1-3.9-0.1-5.6c0.9-1.5,0.2-3.4-0.8-4.7c-4.8-6.1-22.7-12.4-30.3-12.3
	c-0.4,0-2.4-0.1-2.5-0.6c0.1-0.5,1.9-0.7,2.3-0.7C267.8,165.2,284.1,169,291.8,176.8z M277.3,185.4c2.1,4.8-1.8,7.4-5.7,3.2
	c-1.2-1.3-2.2-2.8-3.2-4.3c-1.3-2.2-2.5-4.5-3.3-6.9c-0.2-0.6-1-3.1-0.9-3.8c0.7-0.3,2.3,0.6,2.8,1c1.7,1.1,3.4,2.6,4.8,4
	C273.4,180.1,276.4,183.4,277.3,185.4z M163.9,436.6c0.4,1,0.7,2.2,1,3.3c1.5,6.5,1.2,21.4-7.4,23.1c-1.7,0.3-3.4,0.1-4.8-1.1
	c-1.6-1.4-2.2-3.5-2-5.6c0.2-2.7,1.7-5.1,3.7-6.8c3.5-3,6.5-5.4,6.7-10.3c0-0.9-0.2-4.8,0.9-5.2
	C162.8,433.7,163.8,436.2,163.9,436.6z M176.3,430.2c1,4.3-2.9,4.7-5,1.6c-1.1-1.7-1.4-3.9-1.1-5.9c0.4-2.8,1.9-5.2,3.8-7.2
	c7.5-7.3,21.8-7.4,31.4-6.5c0.5,0,2.9,0.3,3.6,0.7c-0.6,0.5-2.4,1.1-3.1,1.3c-8.9-0.2-24.4,1-29.4,9.6
	C175.5,425.9,175.8,428,176.3,430.2z M144.2,400.3c1.5,5.9,0.8,22.6-5.8,25.5c-0.8,0.4-1.8,0.5-2.7,0.3c-3.5-0.4-5.8-5.3-6.5-8.3
	c-0.2-1.1-0.4-2.1-0.4-3.2c0-1.6,1.6-2,2.9-2.3c6-1.4,8.4-7.2,9.6-12.6c0.1-0.5,0.7-2.9,1.2-3.1
	C143.2,396.6,144.1,399.5,144.2,400.3z M154.4,417.3c2,6,2.8,19.2-3,23.3c-0.9,0.6-1.9,1-3,1.1c-3.5,0.4-5.8-2.3-6-5.6
	c-0.3-5.2,3.4-7.2,6.4-10.6c2.1-2.4,2.6-4.8,2.7-8c0-0.9,0.1-4.5,0.5-5.2C152.8,412.7,154.1,416.5,154.4,417.3z M138.4,376.7
	c0.1,0.6,0.2,1.1,0.2,1.7c0,8.4-3.5,25.2-13.8,26.4c-3.9,0.5-6.1-4.3-6.7-7.4c-0.3-1.4-0.4-2.9-0.3-4.3c0.2-2.6,1.8-2.2,3.8-2.3
	c8.1-0.4,11.3-7.6,14-14.1c0.1-0.3,1.1-2.4,1.6-2.3C137.9,374.5,138.3,376.3,138.4,376.7z M135,352.1c0.9,0.3,1,3,0.9,3.8
	c-0.7,7.4-8.3,27.3-17.6,26.8c-6.3-0.3-9.2-9.1-9.3-14.4c0-3,0.9-3.6,3.7-3.1c9,1.6,15.1-2,19.5-10
	C132.5,354.5,134.1,351.8,135,352.1z M137.1,336.5c-2.7,5.8-7,11.5-12.1,15.4c-3.4,2.6-8.6,5.3-13,3.8c-5.9-2.1-6.8-10.8-6.8-16.1
	c0-0.9,0-3.4,1.1-3.7c0.8-0.3,2.3,0.6,3,1c8.1,4.6,19,2.4,25.7-3.7C138.7,329.8,138.2,334.1,137.1,336.5z M130.4,326.8
	c-3.9,2.1-8.5,3-12.9,2c-6.2-1.5-10.1-6.5-12.1-12.4c-0.4-1.1-0.4-3.3-0.2-4.5c0.3-1.4,1.3-2.6,2.1-3.7c0.8-1.1,1.5-2.3,1.9-3.6
	c0.2-0.6,0.5-1.2,0.8-1.7c1.5-2.1,2.8-2.2,4.1,0.1c6.1,11.1,12.9,13.8,25,9.4c3.3-1.2,4.1,0.4,2.5,3.2
	C138.9,320.3,135.1,324.3,130.4,326.8z M152.6,292.7c4.1-0.2,4.4,1.3,1.9,4.3c-13.8,16.2-48.5,2.7-30.6-22.7
	c0.9-1.3,2.9-3.5,4.8-2.9c1.2,0.4,1.8,2,1.9,3.1C132.6,287.8,139.2,293.5,152.6,292.7z M300.5,315c1.7,9.5,1.1,23.5-6.3,30.6
	c-1.8,1.7-4.3,1.7-6.6,1c-2-0.7-3.2-2.1-3.8-4.1c-1.4-4.7,1.5-8.7,5.3-11.1c5.2-3.3,4.3-7.2-0.1-10.8c-6.7-5.5-10.1-14-7.4-22.5
	c0.8-2.6,2.1-5.1,3.7-7.3C294.1,295.5,298.8,305.7,300.5,315z M171.2,462.3c1.5,7.5-0.5,20.1-7.4,24.6c-2.9,1.9-6.8,1.8-8.2-1.9
	c-0.5-1.4-0.6-2.9-0.3-4.3c0.7-2.7,2.6-4.3,4.7-5.9c4.6-3.5,7.2-6.3,7.6-12.4C167.9,459.4,170.6,458.8,171.2,462.3z M185.9,453.7
	c3.9,4.6-2.5,10.5-6.9,1.7c-0.6-1.1-1-2.4-1.2-3.6c-0.9-5.8,2.5-11.6,6.1-15.8c4.7-5.7,11.3-10.4,17.8-13.7c6.1-3.1,13-5.4,19.9-5.9
	c0.4,0,2.4,0,2.5,0.7s-1.9,1.3-2.4,1.4c-5.7,1.2-11.6,3.7-16.7,6.5c-5.5,3-11.3,7.1-15.5,11.8c-3.1,3.4-6.4,8.3-5.5,13.1
	C184.3,451.1,184.9,452.5,185.9,453.7z M235.3,421.4c-9.3,4-22.3,13-27.8,21.6c-5.6,8.8-10,1.6-6.8-2.8c5.8-7.8,23.6-19.3,33.2-20.7
	c0.6-0.1,1.9-0.2,2.1,0.6C236.3,420.6,235.8,421.2,235.3,421.4z M179.9,403.3c15.1-9.8,58.7,10.4,77,11.4c0.7,0,3,0.3,3,1.4
	c0,0.5-0.5,0.9-0.9,1.2c-1,0.6-2.3,0.8-3.5,0.8c-4.7,0-9.6-0.8-14.1-1.7c-5.5-1.1-10.9-2.6-16.3-4c-7.5-2-15.2-4.2-22.9-5.5
	c-4.9-0.9-12.2-1.8-16.9,0.3c-1.6,0.7-3.6,1.4-5.3,1.1c-0.8-0.1-1.8-0.5-2.2-1.3C177.3,405.4,178.9,404,179.9,403.3z M154.9,571.2
	c0.4,0.7,1.4,2.9,0.8,3.6c-0.4,0.4-1.6,0.1-2-0.1c-5.4-2-7.4,2.3-7.6,6.9c0,0.6,0,1.3,0,1.9c0.5,20,20.8,47.6,35.1,60.7
	c0.5,0.4,2.7,2.7,2.7,3.5c-0.9,0.2-3.7-1.8-4.2-2.3c-16-12.3-41.2-40.5-44.7-60.8c-0.8-4.5-0.6-9.4,2.4-13.1c3.9-4.8,11.2-6.3,16-2
	C154,569.9,154.5,570.5,154.9,571.2z M111.2,601.6c-6.5-9.4,4.6-16.5,11.3-4.9c8.9,15.5,20.2,28.9,33.8,40.5
	c12,10.2,25.1,18.6,38.8,26.3c0.7,0.4,1.6,1,2.1,1.6c0.1,0.1,0.4,0.5,0.4,0.7c-0.1,0.2-0.7,0.1-0.9,0.1c-0.9-0.1-1.9-0.5-2.7-0.8
	C164.3,651.1,130,628.9,111.2,601.6z M138.9,525.9c-1.6,7.4-3.6,15.3-6.6,22.2c-6.4,14.8-18.4,30.7-36.1,30.7
	c-10.4,0-21.1-9.9-22.4-20.1c-1.1-8.1,4.8-17.4,12.6-19.8c1.9-0.6,3.9-0.7,5.9-0.4c5.2,0.9,10.4,4.9,10.6,10.5
	c0.2,5-3.3,7.7-7.6,8.3c2.7-2.5,3.7-6.9,1.7-10.2c-1.3-2.2-3.6-3.1-6.1-3.1c-5.6,0-8.2,5.7-8.2,10.6c-0.1,11.9,11.1,15.1,20.9,12.4
	c13.6-3.7,21.4-18.6,25.8-30.9c10.3-28.5,12.2-65.7,5.4-95.5c9.9,13.2,9.4,41.3,8.2,56.1C142.3,506.6,140.9,516.4,138.9,525.9z
	 M163.4,502.3c-5.6,10.4-7.8,22.5-8,34.2c-0.1,2.3-0.1,5.2-0.8,7.4c-2.4,8.1-11.8,5.9-11.5-3.4c0.5-14.4,4.4-25.6,13.2-36.9
	c4.8-6.2,10.5-11.8,15.8-17.6C170.2,491.7,166.2,497,163.4,502.3z M283.8,402.3c0.8,0.8,0.1,2.8-0.4,3.6c-1,1.9-2.9,3.4-5,4
	c-5.8,1.7-14,1.1-19.9,0.2c-4.5-0.6-9-1.6-13.4-2.8c-2.9-0.8-6.5-1.9-9.2-3.3c-6.4-3.4-11.3-9.2-11.3-16.7c0-1.8,1.5-3.4,3.1-4.2
	c1.6-0.8,3.4-0.8,4.9,0.1c-1.2,0.7-2.1,1.8-2.6,3.1c-1.4,4,1.8,8.4,5,10.6c9.7,6.4,36,10,46.8,5.4
	C282.2,402.1,283.3,401.8,283.8,402.3z M309.6,379.1c3.9,0,7.4,1.4,9.9,4.5c4.7,5.8,3.8,14.8-0.8,20.4c-3.5,4.3-8.8,6.8-14.4,6.6
	c-17.9-0.7-22.3-18.2-22.6-33c-0.1-2.5,0-5,0.2-7.5c0.5-0.4,1-0.8,1.5-1.3c0.9-0.8,1.7-1.7,2.4-2.6c2.7-3.2,3.6-2.6,7.1-3.3
	c-3.2,10.5-6.2,28.5,1.7,36.9c2.8,3,6.5,4.2,10.5,4.4c3.7,0.2,7.2-1.6,9.4-4.5c2-2.6,3-6.2,2-9.4c-0.4-1.3-1-2.4-1.9-3.3
	c-1.6-1.7-3.7-2.3-6-2.2c-2.1,0.1-4.3,1.5-4.5,3.8c-0.1,1.2,0.4,2.2,1.2,3c2.7,2.6-0.2,4-2.7,2.4c-0.8-0.5-1.4-1.2-1.9-2.1
	c-1.3-2.5-0.7-5.6,0.7-7.9C303.3,380.8,306.2,379.1,309.6,379.1z M297.9,421.8c40.7-4.9,80.3-20.2,107.5-51.9
	c11-12.8,19.3-27.5,24.6-43.5c5.1-15.5,7.3-31.9,6.6-48.1c-1.4-34-15-67.2-38.5-91.8c-26.6-27.8-62.1-41.2-100.3-41.2
	c-35.8,0-71.2,6.9-104.3,20.4l-2.8,1.1l3,0.1c24.9,1.2,43.6,16.7,59.1,34.9c0.8,0.9,2,1.6,3.2,1.1c1.5-0.6,1.5-2.4,1.3-3.8
	c-3.5-16.4-9.2-23.3-20.2-35.1c-0.8-0.9-1.6-2-2-3.1c-0.1-0.3-0.4-1.2-0.1-1.4c0.6-0.6,3.4,1.3,3.8,1.6c8.2,6,14.8,12.8,20.7,21.1
	c4.8,6.8,8.7,14,13.3,20.9c4,5.9,8.3,11.2,13.8,15.7c1.2,1,4.6,3.7,6.2,2.1c1.1-1.1,0.5-3.4-0.1-4.6c-2.3-4.6-5-9-8.2-13l-0.5-0.6
	c-0.3-0.4-2.1-2.9-1.9-3.6c0.7-0.4,3.9,1.7,4.4,2.1c6.3,4.4,11.9,10.2,17,15.8c6.7,7.4,13.2,14.9,20.1,22.1c9.5,9.9,21,21.6,34.7,25
	c2.7,0.7,4.8,0.5,4.7-2.7c0-0.3,0-0.6,0-0.9c0-0.5,0.1-1.6,0.6-1.9c1.8-0.9,7.6,4.8,8.7,5.9c2.3,2.3,4.7,4.9,6.6,7.5
	c1.2,1.6,1.4,3.6-1.2,2.5c-2-0.9-3.9-1.7-6-2.4c-3.7-1.2-4.4,2.1-1.7,3.9c1.6,1.1,3.8,1.6,5.6,2.4c4.1,1.8,4.5,3.7,1.4,7.1
	c-5.5,5.9-9.1,13.3-14.5,19.1c-1.1,1.2-2.2,2.3-3.5,3.3c-0.6,0.5-4.2,3.3-5.1,2.5c-0.5-0.4-0.2-1.9-0.1-2.4c0.4-1.5,1.1-3.1,1.8-4.5
	l0.4-0.7c2.8-4.6,6.4-16.1,1.1-20.1c-4.7-3.5-6.9,2.8-8.2,6.2c-0.6,1.5-2,6.4-4.4,5.4c-1.8-0.7-1.5-4.5-1.4-6.1
	c0.2-3.9,0.8-6.7-3.1-8.9c-3-1.7-11.5-5.9-13.5-1.2c-1.3,3-0.9,8.1-2.5,10.4c-0.4,0.6-1.1,1.3-1.9,1.2c-1.1-0.1-1.6-1.6-1.7-2.5
	c-0.6-2.8-1.5-5.4-2.8-8c-3.4-6.6-11.9-5.5-17.7-3.5c-9.7,3.4-18.2,11.3-21.4,21.1c-3.2,9.8,0.7,19.7,8.4,26.1
	c0.8,0.6,2.6,2.2,2.3,3.3c-0.2,0.8-1.3,1.6-2,2c-5.1,3.3-8.5,8.8-6.7,14.9c1.8,6.2,7,7.5,12.8,6.7c5.6-0.7,12.2-3.1,17.1-5.8
	c2.9-1.6,4.4,0,2.5,2.6c-3.3,4.5-15,11-20.4,12.2c-1.4,0.3-2.8,0.4-4.2,0.8c-2.3,0.6-3.8,2-5.3,3.7c-1.3,1.5-4.1,4.8-6.3,4.7
	c-1.3-0.1-2.2-1.5-2.7-2.6l0,0l0,0c-11-18.1-33.4-53.7-57.5-52.9c-7.5,0.2-15.4,4.7-15.4,13c0,4.8,2.8,9.2,7.9,9.3
	c2.9,0.1,6.4-1.5,6.4-4.8c0-2.8-2.3-4.5-5-4.6c-3.3-0.5-2.6-4.9,0.6-4.9c4.8,0,8.6,5.4,8.2,10c-0.2,2.8-1.5,5.3-3.8,7
	c-4.5,3.3-10.9,2.3-14.8-1.5c-3-3-4.5-7.1-4.6-11.3c-0.1-11.1,11-18.6,21.3-18.6c18.4,0,37,17.7,48.4,30.4l1.5,1.7l-0.3-2.2
	c-1.5-9.7-6.9-19.6-10.8-28.6c-2.7-6.1-5-12.5-5.8-19.2c-2.2-18.6,4.8-26.6,23.6-27.9c4-0.3,4.3-4.6-0.3-4.5
	c-6.3,0.1-11.6,1-17.6,2.6c-6.9,1.8-7.6,1.7-13.3-2.7c-7-5.4-13.1-12.4-19-19c-4.1-4.6-8.2-9.1-12.7-13.3
	c-13.8-12.7-24.4-14.2-42.4-11.3c-8,1.3-16,2.4-24.1,3.1c-9.7,0.8-20.4,1.2-30-0.6l-0.3-0.1l-0.2,0.2c-4,3.6-7.9,7.2-11.7,11
	l-0.6,0.6l0.8,0.4c8.6,4.7,39.8,1.7,49.7,0.5c4.1-0.5,8.2-1,12.3-1.6c9.3-1.4,19.3-1.5,28.6,0.3c7,1.4,14.9,4.1,20,9.3
	c0.6,0.6,2.7,3,1.9,4c-0.7,0.9-3-0.2-3.7-0.6c-13.9-7.7-35.7-5.5-50.7-2.9c-5,0.9-10.1,1.9-15.1,3.1c-15.3,3.6-35.8,4.7-50.9-0.1
	c-1.1-0.3-2.2-0.7-3.3-0.9l-0.4-0.1l-0.3,0.3c-4.3,4.9-8.5,10-12.5,15.2l-1.7,2.2l2.6-1.3c3.4-1.6,6.9-2.9,10.6-3.9
	c3.1-0.8,6.3-1.3,9.5-1.8c1.9-0.3,3.3-1.6,5-1.9c2.1-0.4,4.1-0.2,6.3-0.8c0.6-0.2,2.1,0.1,3,0.2l-1,0.4c-0.9,0.4-1.7,0.8-2.6,1.2
	c-0.4,0.2-1.1,0.5-1.5,0.6c-2,0.4-3.1,0.8-4.8,1.8c-1.1,0.7-1.9,1-3.2,1.2c-1.1,0.2-2.3,0.5-3.4,0.8c-9.5,2.6-21.1,8.8-28.7,15
	l-0.1,0.1l-0.1,0.1c-3.3,4.9-6.4,10-9.4,15.1l-1.1,2l2-1c1.9-1,3.6-2.1,5.4-3.2c6.4-3.8,12.8-7.8,19.2-11.7
	c4.7-2.8,9.4-5.6,14.3-8.1c3.1-1.6,7.4-3.7,10.7-4.4c4.3-0.8,7.1-3.8,11-5c3.9-1.1,7.7-1.1,11.6-2.6c2.8-1.1,5.5-2.2,8.3-3
	c0.2-0.1,0.7-0.2,1.1-0.3c-0.4,0.4-0.9,0.7-1.1,0.9c-3.9,2.7-8.4,5.5-13,6.8c-2.8,0.8-5.7,1.6-8.3,3c-2.1,1.1-4,2.2-6.1,3.3
	c-20,9.7-33.1,28.5-55.9,33.5c-1.3,0.3-2.7,0.6-4,0.9l-0.3,0.1l-0.1,0.3c-1.9,3.6-3.7,7.3-5.4,11l-0.5,1.1l1.2-0.1
	c2.1-0.3,4.6-1.3,6.5-2.1c2.8-1.2,5.6-2.6,8.4-4c2.9-1.5,5.8-3,8.7-4.6c1.9-1,3.8-2.1,5.7-3c0.2-0.1,0.6-0.3,1-0.5l-0.7,0.9
	c-3.7,4.9-9.1,9-14.2,12.4c-3.9,2.6-7.9,5-12,7.3c-3.2,1.9-6.6,3.8-9.7,5.9l-0.2,0.1l-0.1,0.2c-1.1,2.7-2.1,5.5-3.1,8.2l-0.4,1.1
	l1.1-0.2c5-0.8,17.6-11.4,21.8-15c0.1-0.1,0.5-0.4,0.8-0.7c-0.3,0.5-0.6,1-0.7,1.2c-3.7,6.2-8.4,11.2-14,15.8
	c-2.3,1.9-4.7,3.7-7,5.6c-2,1.6-4.1,3.3-5.9,5.1l-0.1,0.1v0.2c-1.7,5.5-3.2,11.1-4.5,16.7l-0.4,1.8l1.5-1.1c1.7-1.2,3.5-3.3,4.9-4.9
	c2.1-2.4,4.2-5,6.2-7.5c2.2-2.7,4.4-5.4,6.6-8.1l0.5-0.5c-0.2,0.5-0.4,1.1-0.5,1.3c-2.8,7.7-6.3,14.8-11.4,21.3
	c-1.7,2.1-3.4,4.1-5.2,6.1c-1.6,1.7-3.1,3.5-4.5,5.4c-0.3,0.4-0.6,0.8-0.8,1.2l-0.1,0.1v0.1c-0.8,4.7-1.5,9.4-2.1,14.1v0.4l0.3,0.2
	c1.5,1.3,3.7,1.1,5.4,0.5c2.1-0.7,4.1-2.2,5.6-3.8c0.8-0.9,1.5-1.9,1.9-2.9c5.1-11.1,9.7-22.3,14.4-33.6c4.1-9.8,8.4-19.6,13.6-28.9
	c12.2-21.4,27.9-36,48.7-48.9l0.4-0.2l-0.3,0.3c-18.9,17.5-35.2,36.3-44.2,60.8c-6.1,16.8-9.4,34.5-15.7,51.3
	c-3.4,8.9-9.1,19.6-17.6,24.7c-2.4,1.4-5.2,2.5-7.9,2.5c-1.9,0-3.9-0.5-5.3-1.9l-1.1-1.1l-0.1,1.5c-0.2,4.7-0.4,9.3-0.4,14
	c0,73.4,28.9,143.2,80.8,195.1c44.4,44.4,102.4,72.4,164.9,79.2l0.6,0.1l0.2-1.3l-0.6-0.1c-55.6-11.3-93.6-59.1-102.1-113.7
	c-1.9-12.1-2.3-24.4-1.2-36.6c2.8-29.8,15-57.3,36.1-78.7C226.5,438.9,261.8,426.1,297.9,421.8z M324.9,399.4
	c55.3-11.7,95-60.8,95-117.5c0-1.7,0-3.4-0.1-5.1c-0.4-5.7-2.5-11.6-5.4-16.5c-4.7-8.1-13.5-16.7-23.5-16.2
	c-3.8,0.2-12.3,2.9-10,8.1c1,2.3,3.4,2.5,5.3,1.3c0.9-0.6,2.1,0,2.6,0.8c0.2,0.3,0.3,0.6,0.2,1c-0.1,0.7-0.4,1.3-0.9,1.8
	c-1.4,1.6-4,1.9-6,1.5c-2.6-0.5-4.7-2.2-5.7-4.7c-1.9-4.7,1.5-10.1,5.5-12.5c4.7-2.8,10.1-3.1,15.4-1.9c6.5,1.5,14.6,6.4,17.4,12.7
	l0.3,0.6l1.2-0.4l-0.2-0.6c-10.1-39.1-39.5-70.7-77.7-83.6l-0.6-0.2l-0.4,1.3l0.6,0.2c7.1,2.5,15,8,20.5,13.1
	c6.6,6,15.5,16.3,13.7,25.9c-1.7,9.5-11.2,15.3-20.4,12.2c-4.6-1.5-7.8-5.2-8.9-9.8c-0.9-3.9-0.3-8.5,2.6-11.4
	c2.1-2.1,4.9-2.8,7.8-2.5c4.6,0.5,7.2,4.3,7.3,8.7c0.1,3.7-4.7,4.8-4.6-0.2c0.1-3-3.1-4.6-5.7-3.6c-2.9,1.1-3.7,4.7-3.3,7.5
	c0.3,1.7,1,3.5,2.3,4.6c1.8,1.6,4.2,2.3,6.6,2.3c5.2,0.1,10.3-3.2,11-8.6c0.9-6.3-3.4-12.6-7.4-17c-5.6-6.1-13-11.4-20-15.7
	c-5.5-3.3-11.2-6.2-17.1-8.6c-4.6-1.9-9.9-3.7-14.9-4.4l0,0l0,0c-2-0.1-4-0.2-6-0.2c-4.9-1.6-9.9-2.8-15-3.7
	c-1.4-0.3-2.8-0.5-4.3-0.7c5.8-0.8,11.7-1.2,17.5-1.2c69.5,0,125.8,56.3,125.8,125.8c0,61.2-44.1,113.5-104.1,123.9
	C323,403.9,324.2,401.7,324.9,399.4z M150.7,204.9c8.7-2,17.5-4.2,26.4-5.2c5.8-0.7,11.6-0.8,17.4-0.1c12.9,1.6,22.2,8.2,31.3,17
	c9.4,9,19.2,15.1,31.8,18.4c8.3,2.2,17,2.9,25.6,3.9c1.2,0.1,2.5,0.2,3.7,0.3c6.8,0.6,13.6,0.8,20.5,1.4c0.9,0.1,1.8,0.3,2.7,0.7
	c2.2,0.9,4.1,2.6,5.8,4.2c2.1,1.8,4,3.7,6.4,5.2c0.2,0.1,0.9,0.6,0.9,0.8c-0.1,0.2-0.6,0.3-0.7,0.3c-0.6,0.1-1.2,0.1-1.8,0
	c-2.4-0.5-4.5-1.5-6.7-2.5c-2-0.9-4.1-1.9-6.3-2.2c-7.5-1.1-6.4,4.7-1.6,5.5c8.6,1.4,16.5,4.9,24.9,6.5c3.2,0.6,4.6-0.9,2.1-3.6
	c-5.1-5.4-10.6-10.4-15.7-15.7c-3.9-4-7.9-7.4-13.8-7c-18,1.2-34.9-1-51-9.6c-6-3.2-11.4-6.9-16.8-11c-5.1-3.8-10.1-7.7-15.5-11.2
	c-7.7-5-15.4-8.6-24.5-10.4c-11.8-2.2-24.1-0.9-35.7,1.9c-0.5,0.1-3,0.7-3.5,0.3c0-0.7,2.3-2.7,2.7-3c13.2-10.9,34.9-9.6,50.6-6.3
	l3.2,0.7l-2.6-1.9c-9.5-6.7-22.6-9.5-34.1-9h-0.1l-0.1,0.1c-19.2,9.4-37.2,21.1-53.7,34.7l-1.6,1.3l2-0.1
	C132.3,208.9,141.5,207,150.7,204.9z"/>
</svg>
